<?xml version="1.0" encoding="UTF-8" standalone="no"?>
<!-- Created with Inkscape (http://www.inkscape.org/) -->

<svg
   width="411.68784mm"
   height="167.32539mm"
   viewBox="0 0 411.68784 167.32539"
   version="1.1"
   id="svg5"
   xml:space="preserve"
   sodipodi:docname="TheLlogo.svg"
   inkscape:version="1.2.2 (b0a8486541, 2022-12-01)"
   xmlns:inkscape="http://www.inkscape.org/namespaces/inkscape"
   xmlns:sodipodi="http://sodipodi.sourceforge.net/DTD/sodipodi-0.dtd"
   xmlns="http://www.w3.org/2000/svg"
   xmlns:svg="http://www.w3.org/2000/svg"><sodipodi:namedview
     id="namedview219"
     pagecolor="#ffffff"
     bordercolor="#000000"
     borderopacity="0.25"
     inkscape:showpageshadow="2"
     inkscape:pageopacity="0.0"
     inkscape:pagecheckerboard="true"
     inkscape:deskcolor="#d1d1d1"
     inkscape:document-units="mm"
     showgrid="false"
     inkscape:zoom="6.9203729"
     inkscape:cx="1542.9804"
     inkscape:cy="367.89925"
     inkscape:window-width="1920"
     inkscape:window-height="1014"
     inkscape:window-x="0"
     inkscape:window-y="0"
     inkscape:window-maximized="1"
     inkscape:current-layer="text1786-9-2" /><defs
     id="defs2" /><g
     id="layer1"
     transform="translate(115.04203,-17.354463)"><path
       style="fill:#ffffff;fill-opacity:0.990741;stroke:none;stroke-width:1.55;stroke-dasharray:none;paint-order:stroke fill markers"
       id="path7458"
       d="m -114.8964,-3.4051969 -27.66655,15.9714159 -27.66493,15.974224 -27.66492,-15.974227 -27.66655,-15.9714134 0.002,-31.9456426 -0.002,-31.945639 27.66655,-15.971415 27.66493,-15.974225 27.66492,15.974228 27.66655,15.971413 -0.002,31.945643 z"
       transform="matrix(1.2555569,0,0,1.26388,168.59047,144.74928)" /><g
       aria-label="MPLIED"
       id="text1786"
       style="font-size:55.4959px;letter-spacing:0.396875px;stroke:none;stroke-width:1.55;stroke-dasharray:none;paint-order:stroke fill markers"
       transform="translate(3.2193314,1.8862119)"><path
         d="M 76.473611,97.488884 H 68.648689 V 70.184902 L 61.156743,97.488884 H 52.94335 L 46.044672,70.295893 46.647519,97.488884 H 37.737473 V 57.587332 h 12.264594 l 7.158971,29.246339 h 0.110992 l 7.158971,-29.246339 h 12.04261 z"
         style="font-family:Coolvetica;-inkscape-font-specification:Coolvetica;stroke:none;stroke-width:1.55;stroke-dasharray:none;paint-order:stroke fill markers"
         id="path2710" /><path
         d="m 94.906633,76.233955 q 3.163266,0 5.105627,-1.886861 1.72037,-1.664877 1.72037,-4.051201 0,-2.330827 -1.72037,-3.995704 Q 98.125395,64.52432 94.906633,64.52432 H 86.97072 v 11.709635 z m 2.108844,-18.646623 q 5.549593,0 8.934843,4.051201 3.05227,3.718225 3.05227,8.879344 0,5.161119 -3.05227,8.65736 -3.38525,3.884713 -9.267818,3.884713 H 86.97072 V 97.488884 H 78.590839 V 57.587332 Z"
         style="font-family:Coolvetica;-inkscape-font-specification:Coolvetica;stroke:none;stroke-width:1.55;stroke-dasharray:none;paint-order:stroke fill markers"
         id="path2712" /><path
         d="M 137.59134,97.488884 H 109.39943 V 57.587332 h 8.37988 v 32.631589 h 19.81203 z"
         style="font-family:Coolvetica;-inkscape-font-specification:Coolvetica;stroke:none;stroke-width:1.55;stroke-dasharray:none;paint-order:stroke fill markers"
         id="path2714" /><path
         d="m 148.14394,97.488884 h -8.37989 V 57.587332 h 8.37989 z"
         style="font-family:Coolvetica;-inkscape-font-specification:Coolvetica;stroke:none;stroke-width:1.55;stroke-dasharray:none;paint-order:stroke fill markers"
         id="path2716" /><path
         d="M 180.61744,97.488884 H 150.31668 V 57.587332 h 29.35733 v 7.04798 h -21.19944 v 8.490872 h 19.47906 v 6.992484 h -19.47906 v 10.322237 h 22.14287 z"
         style="font-family:Coolvetica;-inkscape-font-specification:Coolvetica;stroke:none;stroke-width:1.55;stroke-dasharray:none;paint-order:stroke fill markers"
         id="path2718" /><path
         d="m 204.98852,66.189197 q -2.16434,-1.831365 -7.88042,-1.831365 -1.22091,0 -3.21876,0.110992 -1.94235,0.0555 -2.6083,0.0555 v 26.138568 h 8.21339 q 4.38417,0 6.88149,-4.32868 2.21984,-3.829217 2.21984,-9.378807 0,-7.71393 -3.60724,-10.766204 z m 5.16112,28.136421 q -3.66273,3.163266 -9.4343,3.163266 h -17.5922 V 57.587332 h 17.75869 q 5.60508,0 9.21231,2.608308 3.44075,2.441819 5.27212,6.992483 1.66487,4.217688 1.66487,9.434303 0,5.327606 -1.77587,10.044758 -1.83136,4.939135 -5.10562,7.658434 z"
         style="font-family:Coolvetica;-inkscape-font-specification:Coolvetica;stroke:none;stroke-width:1.55;stroke-dasharray:none;paint-order:stroke fill markers"
         id="path2720" /></g><g
       aria-label="NTELLECT"
       id="text1786-9-2"
       style="font-size:55.4959px;letter-spacing:0.396875px;stroke-width:1.55;paint-order:stroke fill markers"
       transform="translate(0.8651033,1.2976549)"><path
         d="M 72.494673,141.10973 H 64.170288 L 47.798998,114.3607 v 26.74903 h -7.824922 v -39.90156 h 8.823848 l 15.927323,26.08308 v -26.08308 h 7.769426 z"
         style="font-family:Coolvetica;-inkscape-font-specification:Coolvetica"
         id="path7380" /><path
         d="m 106.64304,108.31104 -11.386635,-0.0549 v 32.85358 H 86.876524 V 108.25615 H 73.831077 v -7.04798 l 32.811963,0.0549 z"
         style="font-family:Coolvetica;-inkscape-font-specification:Coolvetica"
         id="path7382" /><path
         d="m 137.09056,141.10973 h -29.22821 v -39.90156 h 28.81395 v 7.04798 h -20.65605 v 8.49088 h 18.93568 v 6.99248 h -18.93568 v 10.32224 h 21.07031 z"
         style="font-family:Coolvetica;-inkscape-font-specification:Coolvetica"
         id="path7384" /><path
         d="m 165.66514,141.10973 h -27.10516 v -39.90156 h 8.37988 v 32.63159 h 18.72528 z"
         style="font-family:Coolvetica;-inkscape-font-specification:Coolvetica"
         id="path7386" /><path
         d="m 194.43502,141.10973 h -27.28628 v -39.90156 h 8.37988 v 32.63159 h 18.9064 z"
         style="font-family:Coolvetica;-inkscape-font-specification:Coolvetica"
         id="path7388" /><path
         d="m 226.20475,141.10973 h -30.30076 v -39.90156 h 29.35733 v 7.04798 h -21.19944 v 8.49088 h 19.47906 v 6.99248 h -19.47906 v 10.32224 h 22.14287 z"
         style="font-family:Coolvetica;-inkscape-font-specification:Coolvetica"
         id="path7390" /><path
         d="m 263.4509,127.45773 q -1.72038,9.04584 -8.71286,12.76406 -3.71822,1.99785 -8.49087,1.99785 -5.21662,0 -9.4343,-2.27533 -4.1622,-2.27533 -6.60402,-6.88149 -2.38632,-4.60616 -2.38632,-11.43215 0,-5.4386 1.55388,-9.71179 2.7193,-7.60294 9.43431,-10.37773 3.49624,-1.3874 7.54744,-1.3874 4.77265,0 8.54637,1.88686 7.71393,3.77372 8.54637,12.32009 h -8.37988 q -0.83244,-3.38525 -3.27426,-5.21661 -2.38633,-1.83137 -5.32761,-1.83137 -4.77265,0 -7.49194,3.82922 -2.7193,3.82922 -2.7193,10.04476 0,5.3831 2.10884,9.10133 2.55281,4.66165 7.60294,4.66165 7.43645,0 9.10133,-7.49195 z"
         style="font-family:Coolvetica;-inkscape-font-specification:Coolvetica"
         id="path7392" /><path
         d="m 295.65178,108.25615 -11.04857,0 v 32.85358 h -8.37988 v -32.85358 h -11.98711 v -7.04798 l 31.41556,0 z"
         style="font-family:Coolvetica;-inkscape-font-specification:Coolvetica"
         id="path7394"
         sodipodi:nodetypes="ccccccccc" /></g><text
       xml:space="preserve"
       style="font-size:64.7975px;fill:#000000;stroke:none;stroke-width:1.46147;stroke-dasharray:none;paint-order:stroke fill markers"
       x="21.994806"
       y="162.51967"
       id="text1786-3"
       transform="scale(1.1357586,0.88046879)"><tspan
         id="tspan1784-5"
         style="font-style:normal;font-variant:normal;font-weight:normal;font-stretch:normal;font-size:64.7975px;font-family:Coolvetica;-inkscape-font-specification:Coolvetica;stroke:none;stroke-width:1.46147;stroke-dasharray:none;paint-order:stroke fill markers"
         x="21.994806"
         y="162.51967">I</tspan></text><text
       xml:space="preserve"
       style="font-size:63.8258px;fill:#000000;stroke:none;stroke-width:1.46147;stroke-dasharray:none;paint-order:stroke fill markers"
       x="21.607416"
       y="114.12689"
       id="text1786-3-8"
       transform="scale(1.1530495,0.86726545)"><tspan
         id="tspan1784-5-7"
         style="font-style:normal;font-variant:normal;font-weight:normal;font-stretch:normal;font-size:63.8258px;font-family:Coolvetica;-inkscape-font-specification:Coolvetica;stroke:none;stroke-width:1.46147;stroke-dasharray:none;paint-order:stroke fill markers"
         x="21.607416"
         y="114.12689">I</tspan></text><g
       id="g6955"
       transform="matrix(0.9570488,0,0,0.9570488,-576.64266,13.94363)"><path
         style="fill:none;fill-opacity:0.990741;stroke:#000000;stroke-width:0.72722;stroke-dasharray:none"
         id="path5165-0"
         d="M 461.01751,64.139131 440.40801,69.86534 419.79909,75.593643 404.5353,60.6084 389.26999,45.624704 l 5.3457,-20.711452 5.34361,-20.7119977 20.60949,-5.7262088 20.60892,-5.7283028 15.26379,14.9852431 15.26532,14.9836952 -5.34571,20.711452 z"
         transform="matrix(1.8848388,-0.52375242,0.5050411,1.9546705,-272.95059,249.65916)" /><path
         id="rect5023"
         style="fill:#000000;fill-opacity:1;stroke-width:4.16499"
         d="m 483.5999,48.101765 12.40872,6.09702 0.26543,72.872235 -12.28338,8.05495 z" /><path
         id="rect5023-2"
         style="fill:#000000;fill-opacity:1;stroke-width:4.16499"
         d="m 526.51366,58.768866 12.22952,6.680515 0.0633,68.424979 -13.3056,-8.28458 z" /><path
         id="rect5023-0"
         style="fill:#000000;fill-opacity:1;stroke-width:4.16499"
         d="m 484.21431,134.44067 12.08403,-7.38508 59.98344,35.40074 0.13258,14.10351 z" /><path
         id="rect5023-0-6"
         style="fill:#000000;fill-opacity:1;stroke-width:4.16499"
         d="m 556.2217,176.60559 -0.0398,-13.52281 60.77822,-36.81796 11.76606,7.83683 z" /><path
         id="rect5023-9"
         style="fill:#000000;fill-opacity:1;stroke-width:4.16499"
         d="M 617.07253,54.076908 604.9319,62.070916 556.48914,33.36479 556.25606,18.587979 Z" /><path
         id="rect5023-9-6"
         style="fill:#000000;fill-opacity:0.991968;stroke-width:4.16499"
         d="m 616.70558,126.4838 -11.88897,-7.06928 -0.0711,-57.252303 12.28614,-8.142438 z" /><path
         id="rect5023-0-3"
         style="fill:#000000;fill-opacity:1;stroke-width:4.16499"
         d="m 556.43722,18.667598 0.1952,14.455223 -49.10752,28.864252 -12.16728,-7.615052 z" /><path
         style="fill:none;fill-opacity:0.444976;stroke:#000000;stroke-width:0.863787;stroke-dasharray:none"
         id="path5165"
         d="M 461.01751,64.139131 440.40801,69.86534 419.79909,75.593643 404.5353,60.6084 389.26999,45.624704 l 5.3457,-20.711452 5.34361,-20.7119977 20.60949,-5.7262088 20.60892,-5.7283028 15.26379,14.9852431 15.26532,14.9836952 -5.34571,20.711452 z"
         transform="matrix(1.2776219,-0.35167458,0.34233781,1.3124673,-5.0999635,197.43169)" /><path
         id="rect6880"
         style="fill:none;fill-opacity:0.444976;stroke:#000000;stroke-width:1.43621"
         d="m 526.13049,58.486363 13.14415,-6.334486 11.90132,7.345224 0.28822,67.541489 -12.07347,6.94487 -13.05807,-8.59206 z" /><path
         id="rect5023-2-6"
         style="fill:#000000;fill-opacity:1;stroke-width:4.16499"
         d="m 560.60254,52.814157 12.22952,6.680515 0.0633,68.424988 -13.3056,-8.28458 z" /><path
         id="rect6880-1"
         style="fill:none;fill-opacity:0.444976;stroke:#000000;stroke-width:1.43621"
         d="m 560.21937,52.531654 13.14415,-6.334486 11.90132,7.345224 0.28822,67.541498 -12.07347,6.94487 -13.05807,-8.59206 z" /></g></g></svg>
